<mxfile host="app.diagrams.net" modified="2021-08-23T08:42:39.294Z" agent="5.0 (X11; Linux x86_64) AppleWebKit/537.36 (KHTML, like Gecko) Chrome/92.0.4515.131 Safari/537.36" etag="ibr1WoY7huoscLQ0hFHF" version="14.9.7" type="github">
  <diagram id="lUU1369Ov04XNidzJ1nA" name="Page-1">
    <mxGraphModel dx="2028" dy="733" grid="1" gridSize="10" guides="1" tooltips="1" connect="1" arrows="1" fold="1" page="0" pageScale="1" pageWidth="827" pageHeight="1169" math="0" shadow="0">
      <root>
        <mxCell id="0" />
        <mxCell id="1" parent="0" />
        <mxCell id="ZBARFj78i8StIJnQIs7P-3" style="edgeStyle=orthogonalEdgeStyle;rounded=0;orthogonalLoop=1;jettySize=auto;html=1;" edge="1" parent="1" source="ZBARFj78i8StIJnQIs7P-1">
          <mxGeometry relative="1" as="geometry">
            <mxPoint x="70" y="160" as="targetPoint" />
          </mxGeometry>
        </mxCell>
        <mxCell id="ZBARFj78i8StIJnQIs7P-1" value="START" style="ellipse;whiteSpace=wrap;html=1;aspect=fixed;" vertex="1" parent="1">
          <mxGeometry x="30" y="40" width="80" height="80" as="geometry" />
        </mxCell>
        <mxCell id="ZBARFj78i8StIJnQIs7P-8" value="" style="edgeStyle=orthogonalEdgeStyle;rounded=0;orthogonalLoop=1;jettySize=auto;html=1;" edge="1" parent="1" source="ZBARFj78i8StIJnQIs7P-2">
          <mxGeometry relative="1" as="geometry">
            <mxPoint x="205" y="300" as="targetPoint" />
            <Array as="points">
              <mxPoint x="70" y="260" />
              <mxPoint x="205" y="260" />
            </Array>
          </mxGeometry>
        </mxCell>
        <mxCell id="ZBARFj78i8StIJnQIs7P-14" style="edgeStyle=orthogonalEdgeStyle;rounded=0;orthogonalLoop=1;jettySize=auto;html=1;entryX=0.5;entryY=0;entryDx=0;entryDy=0;" edge="1" parent="1" source="ZBARFj78i8StIJnQIs7P-2" target="ZBARFj78i8StIJnQIs7P-5">
          <mxGeometry relative="1" as="geometry">
            <Array as="points">
              <mxPoint x="70" y="260" />
              <mxPoint x="-65" y="260" />
            </Array>
          </mxGeometry>
        </mxCell>
        <mxCell id="ZBARFj78i8StIJnQIs7P-15" style="edgeStyle=orthogonalEdgeStyle;rounded=0;orthogonalLoop=1;jettySize=auto;html=1;" edge="1" parent="1" source="ZBARFj78i8StIJnQIs7P-2" target="ZBARFj78i8StIJnQIs7P-4">
          <mxGeometry relative="1" as="geometry" />
        </mxCell>
        <mxCell id="ZBARFj78i8StIJnQIs7P-16" style="edgeStyle=orthogonalEdgeStyle;rounded=0;orthogonalLoop=1;jettySize=auto;html=1;entryX=0.5;entryY=0;entryDx=0;entryDy=0;" edge="1" parent="1" source="ZBARFj78i8StIJnQIs7P-2">
          <mxGeometry relative="1" as="geometry">
            <mxPoint x="465" y="300" as="targetPoint" />
          </mxGeometry>
        </mxCell>
        <mxCell id="ZBARFj78i8StIJnQIs7P-2" value="LOGS TICKET" style="rounded=0;whiteSpace=wrap;html=1;" vertex="1" parent="1">
          <mxGeometry x="10" y="170" width="120" height="60" as="geometry" />
        </mxCell>
        <mxCell id="ZBARFj78i8StIJnQIs7P-18" style="edgeStyle=orthogonalEdgeStyle;rounded=0;orthogonalLoop=1;jettySize=auto;html=1;entryX=0.5;entryY=0;entryDx=0;entryDy=0;" edge="1" parent="1" source="ZBARFj78i8StIJnQIs7P-4" target="ZBARFj78i8StIJnQIs7P-17">
          <mxGeometry relative="1" as="geometry" />
        </mxCell>
        <mxCell id="ZBARFj78i8StIJnQIs7P-23" style="edgeStyle=orthogonalEdgeStyle;rounded=0;orthogonalLoop=1;jettySize=auto;html=1;entryX=1;entryY=0.5;entryDx=0;entryDy=0;" edge="1" parent="1" source="ZBARFj78i8StIJnQIs7P-4" target="ZBARFj78i8StIJnQIs7P-21">
          <mxGeometry relative="1" as="geometry">
            <Array as="points">
              <mxPoint x="-190" y="340" />
              <mxPoint x="-190" y="610" />
            </Array>
          </mxGeometry>
        </mxCell>
        <mxCell id="ZBARFj78i8StIJnQIs7P-4" value="&lt;span style=&quot;color: rgb(23 , 43 , 77) ; font-family: , &amp;#34;blinkmacsystemfont&amp;#34; , &amp;#34;segoe ui&amp;#34; , &amp;#34;roboto&amp;#34; , &amp;#34;oxygen&amp;#34; , &amp;#34;ubuntu&amp;#34; , &amp;#34;fira sans&amp;#34; , &amp;#34;droid sans&amp;#34; , &amp;#34;helvetica neue&amp;#34; , sans-serif ; font-size: 14px ; text-align: left&quot;&gt;Tools chỉ có trên Jenkins &lt;br&gt;global tools&lt;/span&gt;" style="rhombus;whiteSpace=wrap;html=1;" vertex="1" parent="1">
          <mxGeometry x="-430" y="300" width="210" height="80" as="geometry" />
        </mxCell>
        <mxCell id="ZBARFj78i8StIJnQIs7P-30" style="edgeStyle=orthogonalEdgeStyle;rounded=0;orthogonalLoop=1;jettySize=auto;html=1;" edge="1" parent="1" source="ZBARFj78i8StIJnQIs7P-5">
          <mxGeometry relative="1" as="geometry">
            <mxPoint x="-65" y="450" as="targetPoint" />
          </mxGeometry>
        </mxCell>
        <mxCell id="ZBARFj78i8StIJnQIs7P-31" style="edgeStyle=orthogonalEdgeStyle;rounded=0;orthogonalLoop=1;jettySize=auto;html=1;entryX=1;entryY=0.5;entryDx=0;entryDy=0;" edge="1" parent="1" source="ZBARFj78i8StIJnQIs7P-5" target="ZBARFj78i8StIJnQIs7P-28">
          <mxGeometry relative="1" as="geometry">
            <Array as="points">
              <mxPoint x="78" y="340" />
              <mxPoint x="78" y="610" />
            </Array>
          </mxGeometry>
        </mxCell>
        <mxCell id="ZBARFj78i8StIJnQIs7P-5" value="&lt;span style=&quot;color: rgb(23 , 43 , 77) ; font-family: , &amp;#34;blinkmacsystemfont&amp;#34; , &amp;#34;segoe ui&amp;#34; , &amp;#34;roboto&amp;#34; , &amp;#34;oxygen&amp;#34; , &amp;#34;ubuntu&amp;#34; , &amp;#34;fira sans&amp;#34; , &amp;#34;droid sans&amp;#34; , &amp;#34;helvetica neue&amp;#34; , sans-serif ; font-size: 14px ; text-align: left&quot;&gt;Tools được cài ở &lt;br&gt;hệ điều hành&lt;/span&gt;" style="rhombus;whiteSpace=wrap;html=1;" vertex="1" parent="1">
          <mxGeometry x="-170" y="300" width="210" height="80" as="geometry" />
        </mxCell>
        <mxCell id="ZBARFj78i8StIJnQIs7P-26" style="edgeStyle=orthogonalEdgeStyle;rounded=0;orthogonalLoop=1;jettySize=auto;html=1;" edge="1" parent="1" source="ZBARFj78i8StIJnQIs7P-17">
          <mxGeometry relative="1" as="geometry">
            <mxPoint x="-325" y="570" as="targetPoint" />
          </mxGeometry>
        </mxCell>
        <mxCell id="ZBARFj78i8StIJnQIs7P-17" value="&lt;span style=&quot;color: rgb(23 , 43 , 77) ; font-family: , &amp;#34;blinkmacsystemfont&amp;#34; , &amp;#34;segoe ui&amp;#34; , &amp;#34;roboto&amp;#34; , &amp;#34;oxygen&amp;#34; , &amp;#34;ubuntu&amp;#34; , &amp;#34;fira sans&amp;#34; , &amp;#34;droid sans&amp;#34; , &amp;#34;helvetica neue&amp;#34; , sans-serif ; font-size: 14px ; text-align: left&quot;&gt;request anh tungtt22&amp;nbsp; để có thể add lên repo&lt;/span&gt;" style="rounded=0;whiteSpace=wrap;html=1;" vertex="1" parent="1">
          <mxGeometry x="-437.5" y="460" width="225" height="60" as="geometry" />
        </mxCell>
        <mxCell id="ZBARFj78i8StIJnQIs7P-19" value="NO" style="text;html=1;strokeColor=none;fillColor=none;align=center;verticalAlign=middle;whiteSpace=wrap;rounded=0;" vertex="1" parent="1">
          <mxGeometry x="-320" y="400" width="40" height="20" as="geometry" />
        </mxCell>
        <mxCell id="ZBARFj78i8StIJnQIs7P-21" value="&lt;span style=&quot;color: rgb(23 , 43 , 77) ; font-family: , &amp;#34;blinkmacsystemfont&amp;#34; , &amp;#34;segoe ui&amp;#34; , &amp;#34;roboto&amp;#34; , &amp;#34;oxygen&amp;#34; , &amp;#34;ubuntu&amp;#34; , &amp;#34;fira sans&amp;#34; , &amp;#34;droid sans&amp;#34; , &amp;#34;helvetica neue&amp;#34; , sans-serif ; font-size: 14px ; text-align: left&quot;&gt;tiến hành vào&amp;nbsp;&lt;/span&gt;&lt;a class=&quot;external-link&quot; href=&quot;http://hn-repo.fsoft.com.vn/&quot; style=&quot;color: rgb(59 , 115 , 175) ; font-family: , &amp;#34;blinkmacsystemfont&amp;#34; , &amp;#34;segoe ui&amp;#34; , &amp;#34;roboto&amp;#34; , &amp;#34;oxygen&amp;#34; , &amp;#34;ubuntu&amp;#34; , &amp;#34;fira sans&amp;#34; , &amp;#34;droid sans&amp;#34; , &amp;#34;helvetica neue&amp;#34; , sans-serif ; font-size: 14px ; text-align: left&quot;&gt;hn-repo.fsoft.com.vn&lt;/a&gt;&lt;span style=&quot;color: rgb(23 , 43 , 77) ; font-family: , &amp;#34;blinkmacsystemfont&amp;#34; , &amp;#34;segoe ui&amp;#34; , &amp;#34;roboto&amp;#34; , &amp;#34;oxygen&amp;#34; , &amp;#34;ubuntu&amp;#34; , &amp;#34;fira sans&amp;#34; , &amp;#34;droid sans&amp;#34; , &amp;#34;helvetica neue&amp;#34; , sans-serif ; font-size: 14px ; text-align: left&quot;&gt;&amp;nbsp;để tìm ver đang cần,&lt;/span&gt;" style="rounded=0;whiteSpace=wrap;html=1;" vertex="1" parent="1">
          <mxGeometry x="-437.5" y="580" width="227.5" height="60" as="geometry" />
        </mxCell>
        <mxCell id="ZBARFj78i8StIJnQIs7P-24" value="YES" style="text;html=1;strokeColor=none;fillColor=none;align=center;verticalAlign=middle;whiteSpace=wrap;rounded=0;" vertex="1" parent="1">
          <mxGeometry x="-240" y="360" width="40" height="20" as="geometry" />
        </mxCell>
        <mxCell id="ZBARFj78i8StIJnQIs7P-27" value="&lt;span style=&quot;color: rgb(23 , 43 , 77) ; font-family: , &amp;#34;blinkmacsystemfont&amp;#34; , &amp;#34;segoe ui&amp;#34; , &amp;#34;roboto&amp;#34; , &amp;#34;oxygen&amp;#34; , &amp;#34;ubuntu&amp;#34; , &amp;#34;fira sans&amp;#34; , &amp;#34;droid sans&amp;#34; , &amp;#34;helvetica neue&amp;#34; , sans-serif ; font-size: 14px ; text-align: left&quot;&gt;cài trực tiếp trên máy agent và set biến môi trường trong pipeline&lt;/span&gt;" style="rounded=0;whiteSpace=wrap;html=1;" vertex="1" parent="1">
          <mxGeometry x="-170" y="460" width="225" height="60" as="geometry" />
        </mxCell>
        <mxCell id="ZBARFj78i8StIJnQIs7P-28" value="&lt;span style=&quot;color: rgb(23 , 43 , 77) ; font-family: , &amp;#34;blinkmacsystemfont&amp;#34; , &amp;#34;segoe ui&amp;#34; , &amp;#34;roboto&amp;#34; , &amp;#34;oxygen&amp;#34; , &amp;#34;ubuntu&amp;#34; , &amp;#34;fira sans&amp;#34; , &amp;#34;droid sans&amp;#34; , &amp;#34;helvetica neue&amp;#34; , sans-serif ; font-size: 14px ; text-align: left&quot;&gt;thường xuyên có yêu cầu cài thêm thì đóng lại image&lt;/span&gt;" style="rounded=0;whiteSpace=wrap;html=1;" vertex="1" parent="1">
          <mxGeometry x="-170" y="580" width="227.5" height="60" as="geometry" />
        </mxCell>
        <mxCell id="ZBARFj78i8StIJnQIs7P-32" value="TH1" style="text;html=1;strokeColor=none;fillColor=none;align=center;verticalAlign=middle;whiteSpace=wrap;rounded=0;" vertex="1" parent="1">
          <mxGeometry x="-60" y="410" width="40" height="20" as="geometry" />
        </mxCell>
        <mxCell id="ZBARFj78i8StIJnQIs7P-33" value="TH2" style="text;html=1;strokeColor=none;fillColor=none;align=center;verticalAlign=middle;whiteSpace=wrap;rounded=0;" vertex="1" parent="1">
          <mxGeometry x="30" y="350" width="40" height="20" as="geometry" />
        </mxCell>
        <mxCell id="ZBARFj78i8StIJnQIs7P-43" style="edgeStyle=orthogonalEdgeStyle;rounded=0;orthogonalLoop=1;jettySize=auto;html=1;entryX=1;entryY=0.5;entryDx=0;entryDy=0;" edge="1" parent="1" source="ZBARFj78i8StIJnQIs7P-36" target="ZBARFj78i8StIJnQIs7P-40">
          <mxGeometry relative="1" as="geometry">
            <Array as="points">
              <mxPoint x="341" y="430" />
              <mxPoint x="341" y="650" />
            </Array>
          </mxGeometry>
        </mxCell>
        <mxCell id="ZBARFj78i8StIJnQIs7P-45" style="edgeStyle=orthogonalEdgeStyle;rounded=0;orthogonalLoop=1;jettySize=auto;html=1;" edge="1" parent="1" source="ZBARFj78i8StIJnQIs7P-36">
          <mxGeometry relative="1" as="geometry">
            <mxPoint x="205" y="500" as="targetPoint" />
          </mxGeometry>
        </mxCell>
        <mxCell id="ZBARFj78i8StIJnQIs7P-36" value="&lt;span style=&quot;color: rgb(23 , 43 , 77) ; font-family: , &amp;#34;blinkmacsystemfont&amp;#34; , &amp;#34;segoe ui&amp;#34; , &amp;#34;roboto&amp;#34; , &amp;#34;oxygen&amp;#34; , &amp;#34;ubuntu&amp;#34; , &amp;#34;fira sans&amp;#34; , &amp;#34;droid sans&amp;#34; , &amp;#34;helvetica neue&amp;#34; , sans-serif ; font-size: 14px ; text-align: left&quot;&gt;tiến hành kiểm tra &lt;br&gt;ở&amp;nbsp;&lt;/span&gt;&lt;a class=&quot;external-link&quot; href=&quot;http://hn-repo.fsoft.com.vn/&quot; style=&quot;color: rgb(59 , 115 , 175) ; font-family: , &amp;#34;blinkmacsystemfont&amp;#34; , &amp;#34;segoe ui&amp;#34; , &amp;#34;roboto&amp;#34; , &amp;#34;oxygen&amp;#34; , &amp;#34;ubuntu&amp;#34; , &amp;#34;fira sans&amp;#34; , &amp;#34;droid sans&amp;#34; , &amp;#34;helvetica neue&amp;#34; , sans-serif ; font-size: 14px ; text-align: left&quot;&gt;hn-repo.fsoft.com.vn&lt;/a&gt;" style="rhombus;whiteSpace=wrap;html=1;" vertex="1" parent="1">
          <mxGeometry x="100" y="390" width="210" height="80" as="geometry" />
        </mxCell>
        <mxCell id="ZBARFj78i8StIJnQIs7P-38" value="" style="edgeStyle=orthogonalEdgeStyle;rounded=0;orthogonalLoop=1;jettySize=auto;html=1;" edge="1" parent="1" source="ZBARFj78i8StIJnQIs7P-37" target="ZBARFj78i8StIJnQIs7P-36">
          <mxGeometry relative="1" as="geometry" />
        </mxCell>
        <mxCell id="ZBARFj78i8StIJnQIs7P-37" value="&lt;span style=&quot;color: rgb(23 , 43 , 77) ; font-size: 14px ; text-align: left&quot;&gt;Thư viện sử dụng trong quá trình build app&lt;/span&gt;" style="rounded=0;whiteSpace=wrap;html=1;" vertex="1" parent="1">
          <mxGeometry x="95" y="300" width="220" height="60" as="geometry" />
        </mxCell>
        <mxCell id="ZBARFj78i8StIJnQIs7P-39" value="&lt;span style=&quot;color: rgb(23 , 43 , 77) ; font-family: , &amp;#34;blinkmacsystemfont&amp;#34; , &amp;#34;segoe ui&amp;#34; , &amp;#34;roboto&amp;#34; , &amp;#34;oxygen&amp;#34; , &amp;#34;ubuntu&amp;#34; , &amp;#34;fira sans&amp;#34; , &amp;#34;droid sans&amp;#34; , &amp;#34;helvetica neue&amp;#34; , sans-serif ; font-size: 14px ; text-align: left&quot;&gt;request anh tungtt22&amp;nbsp; để có thể add lên repo&lt;/span&gt;" style="rounded=0;whiteSpace=wrap;html=1;" vertex="1" parent="1">
          <mxGeometry x="95" y="510" width="225" height="60" as="geometry" />
        </mxCell>
        <mxCell id="ZBARFj78i8StIJnQIs7P-40" value="&lt;span style=&quot;color: rgb(23 , 43 , 77) ; font-family: , &amp;quot;blinkmacsystemfont&amp;quot; , &amp;quot;segoe ui&amp;quot; , &amp;quot;roboto&amp;quot; , &amp;quot;oxygen&amp;quot; , &amp;quot;ubuntu&amp;quot; , &amp;quot;fira sans&amp;quot; , &amp;quot;droid sans&amp;quot; , &amp;quot;helvetica neue&amp;quot; , sans-serif ; font-size: 14px ; text-align: left&quot;&gt;tiến hành vào&amp;nbsp;&lt;/span&gt;&lt;a class=&quot;external-link&quot; href=&quot;http://hn-repo.fsoft.com.vn/&quot; style=&quot;color: rgb(59 , 115 , 175) ; font-family: , &amp;quot;blinkmacsystemfont&amp;quot; , &amp;quot;segoe ui&amp;quot; , &amp;quot;roboto&amp;quot; , &amp;quot;oxygen&amp;quot; , &amp;quot;ubuntu&amp;quot; , &amp;quot;fira sans&amp;quot; , &amp;quot;droid sans&amp;quot; , &amp;quot;helvetica neue&amp;quot; , sans-serif ; font-size: 14px ; text-align: left&quot;&gt;hn-repo.fsoft.com.vn&lt;/a&gt;&lt;span style=&quot;color: rgb(23 , 43 , 77) ; font-family: , &amp;quot;blinkmacsystemfont&amp;quot; , &amp;quot;segoe ui&amp;quot; , &amp;quot;roboto&amp;quot; , &amp;quot;oxygen&amp;quot; , &amp;quot;ubuntu&amp;quot; , &amp;quot;fira sans&amp;quot; , &amp;quot;droid sans&amp;quot; , &amp;quot;helvetica neue&amp;quot; , sans-serif ; font-size: 14px ; text-align: left&quot;&gt;&amp;nbsp;để tìm ver đang cần,&lt;/span&gt;" style="rounded=0;whiteSpace=wrap;html=1;" vertex="1" parent="1">
          <mxGeometry x="93.75" y="620" width="227.5" height="60" as="geometry" />
        </mxCell>
        <mxCell id="ZBARFj78i8StIJnQIs7P-41" value="NO" style="text;html=1;strokeColor=none;fillColor=none;align=center;verticalAlign=middle;whiteSpace=wrap;rounded=0;" vertex="1" parent="1">
          <mxGeometry x="230" y="480" width="40" height="20" as="geometry" />
        </mxCell>
        <mxCell id="ZBARFj78i8StIJnQIs7P-42" value="YES" style="text;html=1;strokeColor=none;fillColor=none;align=center;verticalAlign=middle;whiteSpace=wrap;rounded=0;" vertex="1" parent="1">
          <mxGeometry x="281.25" y="440" width="40" height="20" as="geometry" />
        </mxCell>
        <mxCell id="ZBARFj78i8StIJnQIs7P-49" style="edgeStyle=orthogonalEdgeStyle;rounded=0;orthogonalLoop=1;jettySize=auto;html=1;entryX=0.5;entryY=0;entryDx=0;entryDy=0;" edge="1" parent="1" source="ZBARFj78i8StIJnQIs7P-47" target="ZBARFj78i8StIJnQIs7P-48">
          <mxGeometry relative="1" as="geometry" />
        </mxCell>
        <mxCell id="ZBARFj78i8StIJnQIs7P-47" value="&lt;span style=&quot;color: rgb(23 , 43 , 77) ; font-family: , &amp;#34;blinkmacsystemfont&amp;#34; , &amp;#34;segoe ui&amp;#34; , &amp;#34;roboto&amp;#34; , &amp;#34;oxygen&amp;#34; , &amp;#34;ubuntu&amp;#34; , &amp;#34;fira sans&amp;#34; , &amp;#34;droid sans&amp;#34; , &amp;#34;helvetica neue&amp;#34; , sans-serif ; font-size: 14px ; text-align: left&quot;&gt;Tools được cài ở hệ điều hành( đóng lại image)&lt;/span&gt;" style="rounded=0;whiteSpace=wrap;html=1;" vertex="1" parent="1">
          <mxGeometry x="350" y="300" width="227.5" height="60" as="geometry" />
        </mxCell>
        <mxCell id="ZBARFj78i8StIJnQIs7P-55" style="edgeStyle=orthogonalEdgeStyle;rounded=0;orthogonalLoop=1;jettySize=auto;html=1;" edge="1" parent="1" source="ZBARFj78i8StIJnQIs7P-48">
          <mxGeometry relative="1" as="geometry">
            <mxPoint x="463.75" y="490" as="targetPoint" />
          </mxGeometry>
        </mxCell>
        <mxCell id="ZBARFj78i8StIJnQIs7P-48" value="&lt;span style=&quot;color: rgb(23 , 43 , 77) ; font-family: , &amp;#34;blinkmacsystemfont&amp;#34; , &amp;#34;segoe ui&amp;#34; , &amp;#34;roboto&amp;#34; , &amp;#34;oxygen&amp;#34; , &amp;#34;ubuntu&amp;#34; , &amp;#34;fira sans&amp;#34; , &amp;#34;droid sans&amp;#34; , &amp;#34;helvetica neue&amp;#34; , sans-serif ; font-size: 14px ; text-align: left&quot;&gt;truy cập vào&amp;nbsp;&lt;/span&gt;&lt;a class=&quot;external-link&quot; href=&quot;https://git3.fsoft.com.vn/GROUP/DevOps/SDS/aapk-images.git&quot; style=&quot;color: rgb(59 , 115 , 175) ; font-family: , &amp;#34;blinkmacsystemfont&amp;#34; , &amp;#34;segoe ui&amp;#34; , &amp;#34;roboto&amp;#34; , &amp;#34;oxygen&amp;#34; , &amp;#34;ubuntu&amp;#34; , &amp;#34;fira sans&amp;#34; , &amp;#34;droid sans&amp;#34; , &amp;#34;helvetica neue&amp;#34; , sans-serif ; font-size: 14px ; text-align: left&quot;&gt;https://git3&lt;/a&gt;&lt;span style=&quot;color: rgb(23 , 43 , 77) ; font-family: , &amp;#34;blinkmacsystemfont&amp;#34; , &amp;#34;segoe ui&amp;#34; , &amp;#34;roboto&amp;#34; , &amp;#34;oxygen&amp;#34; , &amp;#34;ubuntu&amp;#34; , &amp;#34;fira sans&amp;#34; , &amp;#34;droid sans&amp;#34; , &amp;#34;helvetica neue&amp;#34; , sans-serif ; font-size: 14px ; text-align: left&quot;&gt;&amp;nbsp;và clone về máy&lt;/span&gt;" style="rounded=0;whiteSpace=wrap;html=1;" vertex="1" parent="1">
          <mxGeometry x="350" y="400" width="227.5" height="60" as="geometry" />
        </mxCell>
        <mxCell id="ZBARFj78i8StIJnQIs7P-56" style="edgeStyle=orthogonalEdgeStyle;rounded=0;orthogonalLoop=1;jettySize=auto;html=1;" edge="1" parent="1" source="ZBARFj78i8StIJnQIs7P-50">
          <mxGeometry relative="1" as="geometry">
            <mxPoint x="463.75" y="590" as="targetPoint" />
          </mxGeometry>
        </mxCell>
        <mxCell id="ZBARFj78i8StIJnQIs7P-50" value="&lt;span style=&quot;color: rgb(23 , 43 , 77) ; font-family: , &amp;#34;blinkmacsystemfont&amp;#34; , &amp;#34;segoe ui&amp;#34; , &amp;#34;roboto&amp;#34; , &amp;#34;oxygen&amp;#34; , &amp;#34;ubuntu&amp;#34; , &amp;#34;fira sans&amp;#34; , &amp;#34;droid sans&amp;#34; , &amp;#34;helvetica neue&amp;#34; , sans-serif ; font-size: 14px ; text-align: left&quot;&gt;tạo nhánh mới từ nhánh được tạo mới gần nhất.&lt;/span&gt;" style="rounded=0;whiteSpace=wrap;html=1;" vertex="1" parent="1">
          <mxGeometry x="350" y="500" width="227.5" height="60" as="geometry" />
        </mxCell>
        <mxCell id="ZBARFj78i8StIJnQIs7P-57" style="edgeStyle=orthogonalEdgeStyle;rounded=0;orthogonalLoop=1;jettySize=auto;html=1;" edge="1" parent="1" source="ZBARFj78i8StIJnQIs7P-51">
          <mxGeometry relative="1" as="geometry">
            <mxPoint x="463.75" y="690" as="targetPoint" />
          </mxGeometry>
        </mxCell>
        <mxCell id="ZBARFj78i8StIJnQIs7P-51" value="&lt;span style=&quot;color: rgb(23 , 43 , 77) ; font-family: , &amp;#34;blinkmacsystemfont&amp;#34; , &amp;#34;segoe ui&amp;#34; , &amp;#34;roboto&amp;#34; , &amp;#34;oxygen&amp;#34; , &amp;#34;ubuntu&amp;#34; , &amp;#34;fira sans&amp;#34; , &amp;#34;droid sans&amp;#34; , &amp;#34;helvetica neue&amp;#34; , sans-serif ; font-size: 14px ; text-align: left&quot;&gt;tiến hành chỉnh sửa Dockerfile&lt;/span&gt;" style="rounded=0;whiteSpace=wrap;html=1;" vertex="1" parent="1">
          <mxGeometry x="350" y="600" width="227.5" height="60" as="geometry" />
        </mxCell>
        <mxCell id="ZBARFj78i8StIJnQIs7P-58" style="edgeStyle=orthogonalEdgeStyle;rounded=0;orthogonalLoop=1;jettySize=auto;html=1;entryX=0.5;entryY=0;entryDx=0;entryDy=0;" edge="1" parent="1" source="ZBARFj78i8StIJnQIs7P-52" target="ZBARFj78i8StIJnQIs7P-53">
          <mxGeometry relative="1" as="geometry" />
        </mxCell>
        <mxCell id="ZBARFj78i8StIJnQIs7P-52" value="&lt;span style=&quot;color: rgb(23 , 43 , 77) ; font-family: , &amp;#34;blinkmacsystemfont&amp;#34; , &amp;#34;segoe ui&amp;#34; , &amp;#34;roboto&amp;#34; , &amp;#34;oxygen&amp;#34; , &amp;#34;ubuntu&amp;#34; , &amp;#34;fira sans&amp;#34; , &amp;#34;droid sans&amp;#34; , &amp;#34;helvetica neue&amp;#34; , sans-serif ; font-size: 14px ; text-align: left&quot;&gt;commit lên git&lt;/span&gt;" style="rounded=0;whiteSpace=wrap;html=1;" vertex="1" parent="1">
          <mxGeometry x="350" y="700" width="227.5" height="60" as="geometry" />
        </mxCell>
        <mxCell id="ZBARFj78i8StIJnQIs7P-59" style="edgeStyle=orthogonalEdgeStyle;rounded=0;orthogonalLoop=1;jettySize=auto;html=1;" edge="1" parent="1" source="ZBARFj78i8StIJnQIs7P-53">
          <mxGeometry relative="1" as="geometry">
            <mxPoint x="463.75" y="890" as="targetPoint" />
          </mxGeometry>
        </mxCell>
        <mxCell id="ZBARFj78i8StIJnQIs7P-53" value="&lt;span style=&quot;color: rgb(23 , 43 , 77) ; font-family: , &amp;#34;blinkmacsystemfont&amp;#34; , &amp;#34;segoe ui&amp;#34; , &amp;#34;roboto&amp;#34; , &amp;#34;oxygen&amp;#34; , &amp;#34;ubuntu&amp;#34; , &amp;#34;fira sans&amp;#34; , &amp;#34;droid sans&amp;#34; , &amp;#34;helvetica neue&amp;#34; , sans-serif ; font-size: 14px ; text-align: left&quot;&gt;đánh tag cho image mới phù hợp&lt;/span&gt;" style="rounded=0;whiteSpace=wrap;html=1;" vertex="1" parent="1">
          <mxGeometry x="350" y="800" width="227.5" height="60" as="geometry" />
        </mxCell>
        <mxCell id="ZBARFj78i8StIJnQIs7P-54" value="&lt;ul style=&quot;margin: 0px ; padding-left: 22px ; color: rgb(23 , 43 , 77) ; font-family: , &amp;#34;blinkmacsystemfont&amp;#34; , &amp;#34;segoe ui&amp;#34; , &amp;#34;roboto&amp;#34; , &amp;#34;oxygen&amp;#34; , &amp;#34;ubuntu&amp;#34; , &amp;#34;fira sans&amp;#34; , &amp;#34;droid sans&amp;#34; , &amp;#34;helvetica neue&amp;#34; , sans-serif ; font-size: 14px ; text-align: left&quot;&gt;&lt;li&gt;truy cập vào jenkins để build image&lt;/li&gt;&lt;/ul&gt;" style="rounded=0;whiteSpace=wrap;html=1;" vertex="1" parent="1">
          <mxGeometry x="350" y="900" width="227.5" height="60" as="geometry" />
        </mxCell>
      </root>
    </mxGraphModel>
  </diagram>
</mxfile>
